<?xml version="1.0" encoding="utf-8"?>
<!-- Generator: Adobe Illustrator 16.0.0, SVG Export Plug-In . SVG Version: 6.00 Build 0)  -->
<!DOCTYPE svg PUBLIC "-//W3C//DTD SVG 1.1//EN" "http://www.w3.org/Graphics/SVG/1.1/DTD/svg11.dtd">
<svg version="1.1" id="Layer_1" xmlns="http://www.w3.org/2000/svg" xmlns:xlink="http://www.w3.org/1999/xlink" x="0px" y="0px"
	 width="100px" height="100px" viewBox="0 0 100 100" enable-background="new 0 0 100 100" xml:space="preserve">
<path fill="#FFFFFF" d="M44.28,52.355c-0.14-0.116-0.28-0.209-0.408-0.336c-4.169-3.355-7.349-9.89-7.349-15.166
	c0-7.465,6.848-13.522,13.324-13.522s12.975,6.453,12.975,13.918c0,5.289-3.506,11.611-7.861,14.852
	c0.896,3.051,5.788,1.955,15.885,4.426c8.049,1.979,11.719,5.041,13.127,8.314H14.825c1.421-3.273,5.09-6.336,13.126-8.314
	c9.83-2.41,14.722-1.328,15.805-4.17h0.524V52.355z"/>
<g id="XMLID_1_">
	<g>
		<g id="XMLID_2_">
			<g>
				<path fill="#FFFFFF" d="M12.879,67.139h74.074V18.775H12.879V67.139z M8.12,17.808c0-2.138,1.731-3.869,3.869-3.869h75.853
					c2.139,0,3.869,1.731,3.869,3.869v51.266c0,2.137-1.73,3.867-3.869,3.867H62.49v6.529c0,0.426-0.068,0.832-0.194,1.209h11.56
					c1.47,0,2.66,1.19,2.66,2.66c0,1.471-1.189,2.66-2.66,2.66H25.976c-1.471,0-2.66-1.189-2.66-2.66c0-0.734,0.3-1.402,0.784-1.886
					c0.474-0.476,1.141-0.774,1.876-0.774h11.558c-0.125-0.377-0.193-0.783-0.193-1.209v-6.529H11.989
					c-2.138,0-3.869-1.73-3.869-3.867V17.808z"/>
			</g>
		</g>
	</g>
</g>
</svg>
